<mxfile host="app.diagrams.net" agent="Mozilla/5.0 (Windows NT 10.0; Win64; x64) AppleWebKit/537.36 (KHTML, like Gecko) Chrome/128.0.0.0 Safari/537.36" version="24.7.14">
  <diagram name="Page-1" id="74e2e168-ea6b-b213-b513-2b3c1d86103e">
    <mxGraphModel dx="934" dy="896" grid="1" gridSize="10" guides="1" tooltips="1" connect="1" arrows="1" fold="1" page="1" pageScale="1" pageWidth="1100" pageHeight="850" background="none" math="0" shadow="0">
      <root>
        <mxCell id="0" />
        <mxCell id="1" parent="0" />
        <mxCell id="77e6c97f196da883-1" value="Nhập kho đúng" style="swimlane;html=1;childLayout=stackLayout;startSize=20;rounded=0;shadow=0;labelBackgroundColor=none;strokeWidth=1;fontFamily=Verdana;fontSize=8;align=center;" parent="1" vertex="1">
          <mxGeometry x="40" y="40" width="740" height="610" as="geometry" />
        </mxCell>
        <mxCell id="77e6c97f196da883-3" value="LOG" style="swimlane;html=1;startSize=20;" parent="77e6c97f196da883-1" vertex="1">
          <mxGeometry y="20" width="180" height="590" as="geometry" />
        </mxCell>
        <mxCell id="knV6mDpK084_ws4ZRfsI-4" style="edgeStyle=orthogonalEdgeStyle;rounded=0;orthogonalLoop=1;jettySize=auto;html=1;exitX=0.5;exitY=1;exitDx=0;exitDy=0;entryX=0.5;entryY=0;entryDx=0;entryDy=0;" edge="1" parent="77e6c97f196da883-3" source="knV6mDpK084_ws4ZRfsI-2" target="knV6mDpK084_ws4ZRfsI-3">
          <mxGeometry relative="1" as="geometry" />
        </mxCell>
        <mxCell id="knV6mDpK084_ws4ZRfsI-2" value="Start" style="ellipse;whiteSpace=wrap;html=1;aspect=fixed;" vertex="1" parent="77e6c97f196da883-3">
          <mxGeometry x="55" y="50" width="50" height="50" as="geometry" />
        </mxCell>
        <mxCell id="knV6mDpK084_ws4ZRfsI-3" value="Hàng được giao đến" style="rounded=1;whiteSpace=wrap;html=1;" vertex="1" parent="77e6c97f196da883-3">
          <mxGeometry x="23.75" y="140" width="112.5" height="50" as="geometry" />
        </mxCell>
        <mxCell id="77e6c97f196da883-4" value="FIFO" style="swimlane;html=1;startSize=20;" parent="77e6c97f196da883-1" vertex="1">
          <mxGeometry x="180" y="20" width="225" height="590" as="geometry" />
        </mxCell>
        <mxCell id="knV6mDpK084_ws4ZRfsI-9" style="edgeStyle=orthogonalEdgeStyle;rounded=0;orthogonalLoop=1;jettySize=auto;html=1;entryX=0.5;entryY=0;entryDx=0;entryDy=0;" edge="1" parent="77e6c97f196da883-4" source="knV6mDpK084_ws4ZRfsI-5" target="knV6mDpK084_ws4ZRfsI-7">
          <mxGeometry relative="1" as="geometry" />
        </mxCell>
        <mxCell id="knV6mDpK084_ws4ZRfsI-5" value="Xác nhận mã ASN" style="rounded=1;whiteSpace=wrap;html=1;" vertex="1" parent="77e6c97f196da883-4">
          <mxGeometry x="40" y="140" width="112.5" height="50" as="geometry" />
        </mxCell>
        <mxCell id="knV6mDpK084_ws4ZRfsI-7" value="Trạng thái hàng thành đổi &quot;Đã nhận&quot;" style="rounded=1;whiteSpace=wrap;html=1;" vertex="1" parent="77e6c97f196da883-4">
          <mxGeometry x="40" y="210" width="112.5" height="50" as="geometry" />
        </mxCell>
        <mxCell id="knV6mDpK084_ws4ZRfsI-6" style="edgeStyle=orthogonalEdgeStyle;rounded=0;orthogonalLoop=1;jettySize=auto;html=1;entryX=0;entryY=0.5;entryDx=0;entryDy=0;" edge="1" parent="77e6c97f196da883-1" source="knV6mDpK084_ws4ZRfsI-3" target="knV6mDpK084_ws4ZRfsI-5">
          <mxGeometry relative="1" as="geometry" />
        </mxCell>
        <mxCell id="77e6c97f196da883-6" value="System" style="swimlane;html=1;startSize=20;" parent="77e6c97f196da883-1" vertex="1">
          <mxGeometry x="405" y="20" width="175" height="590" as="geometry" />
        </mxCell>
        <mxCell id="knV6mDpK084_ws4ZRfsI-27" style="edgeStyle=orthogonalEdgeStyle;rounded=0;orthogonalLoop=1;jettySize=auto;html=1;" edge="1" parent="77e6c97f196da883-6" source="knV6mDpK084_ws4ZRfsI-8">
          <mxGeometry relative="1" as="geometry">
            <mxPoint x="87.5" y="340" as="targetPoint" />
          </mxGeometry>
        </mxCell>
        <mxCell id="knV6mDpK084_ws4ZRfsI-28" value="Vận chuyển hàng lên rack" style="edgeLabel;html=1;align=center;verticalAlign=middle;resizable=0;points=[];" vertex="1" connectable="0" parent="knV6mDpK084_ws4ZRfsI-27">
          <mxGeometry x="-0.1017" relative="1" as="geometry">
            <mxPoint as="offset" />
          </mxGeometry>
        </mxCell>
        <mxCell id="knV6mDpK084_ws4ZRfsI-8" value="Hiển thị và cập nhật ở phần &quot;Thực tế&quot; với trạng thái chờ" style="rounded=1;whiteSpace=wrap;html=1;" vertex="1" parent="77e6c97f196da883-6">
          <mxGeometry x="31.25" y="210" width="112.5" height="50" as="geometry" />
        </mxCell>
        <mxCell id="knV6mDpK084_ws4ZRfsI-30" style="edgeStyle=orthogonalEdgeStyle;rounded=0;orthogonalLoop=1;jettySize=auto;html=1;" edge="1" parent="77e6c97f196da883-6" source="knV6mDpK084_ws4ZRfsI-24" target="knV6mDpK084_ws4ZRfsI-29">
          <mxGeometry relative="1" as="geometry" />
        </mxCell>
        <mxCell id="knV6mDpK084_ws4ZRfsI-31" value="Done chuyển hàng lên rack" style="edgeLabel;html=1;align=center;verticalAlign=middle;resizable=0;points=[];" vertex="1" connectable="0" parent="knV6mDpK084_ws4ZRfsI-30">
          <mxGeometry x="-0.2037" y="3" relative="1" as="geometry">
            <mxPoint as="offset" />
          </mxGeometry>
        </mxCell>
        <mxCell id="knV6mDpK084_ws4ZRfsI-24" value="Chuyển trạng thái sang màu xanh dương và kèm theo số % đã lên rack" style="rounded=1;whiteSpace=wrap;html=1;" vertex="1" parent="77e6c97f196da883-6">
          <mxGeometry x="35" y="340" width="108.75" height="70" as="geometry" />
        </mxCell>
        <mxCell id="knV6mDpK084_ws4ZRfsI-34" style="edgeStyle=orthogonalEdgeStyle;rounded=0;orthogonalLoop=1;jettySize=auto;html=1;" edge="1" parent="77e6c97f196da883-6" source="knV6mDpK084_ws4ZRfsI-29">
          <mxGeometry relative="1" as="geometry">
            <mxPoint x="235" y="515" as="targetPoint" />
          </mxGeometry>
        </mxCell>
        <mxCell id="knV6mDpK084_ws4ZRfsI-35" value="Lưu lại thời gian&lt;div&gt;&amp;nbsp;bắt đầu và kết thúc&lt;/div&gt;" style="edgeLabel;html=1;align=center;verticalAlign=middle;resizable=0;points=[];" vertex="1" connectable="0" parent="knV6mDpK084_ws4ZRfsI-34">
          <mxGeometry x="0.2177" relative="1" as="geometry">
            <mxPoint x="-4" y="25" as="offset" />
          </mxGeometry>
        </mxCell>
        <mxCell id="knV6mDpK084_ws4ZRfsI-29" value="Chuyển trạng thái sang màu xanh lá khi đã hoàn tất" style="rounded=1;whiteSpace=wrap;html=1;" vertex="1" parent="77e6c97f196da883-6">
          <mxGeometry x="35" y="480" width="108.75" height="70" as="geometry" />
        </mxCell>
        <mxCell id="77e6c97f196da883-7" value="Database" style="swimlane;html=1;startSize=20;shadow=1;" parent="77e6c97f196da883-1" vertex="1">
          <mxGeometry x="580" y="20" width="160" height="590" as="geometry" />
        </mxCell>
        <mxCell id="knV6mDpK084_ws4ZRfsI-32" value="DB" style="shape=cylinder3;whiteSpace=wrap;html=1;boundedLbl=1;backgroundOutline=1;size=15;" vertex="1" parent="77e6c97f196da883-7">
          <mxGeometry x="70" y="470" width="60" height="80" as="geometry" />
        </mxCell>
        <mxCell id="knV6mDpK084_ws4ZRfsI-10" style="edgeStyle=orthogonalEdgeStyle;rounded=0;orthogonalLoop=1;jettySize=auto;html=1;entryX=0;entryY=0.5;entryDx=0;entryDy=0;" edge="1" parent="77e6c97f196da883-1" source="knV6mDpK084_ws4ZRfsI-7" target="knV6mDpK084_ws4ZRfsI-8">
          <mxGeometry relative="1" as="geometry">
            <mxPoint x="360" y="255.0000000000001" as="targetPoint" />
          </mxGeometry>
        </mxCell>
        <mxCell id="knV6mDpK084_ws4ZRfsI-11" value="API" style="edgeLabel;html=1;align=center;verticalAlign=middle;resizable=0;points=[];" vertex="1" connectable="0" parent="knV6mDpK084_ws4ZRfsI-10">
          <mxGeometry x="-0.5239" y="-1" relative="1" as="geometry">
            <mxPoint x="28" y="-1" as="offset" />
          </mxGeometry>
        </mxCell>
        <mxCell id="knV6mDpK084_ws4ZRfsI-36" value="Nhập kho trễ" style="swimlane;html=1;childLayout=stackLayout;startSize=20;rounded=0;shadow=0;labelBackgroundColor=none;strokeWidth=1;fontFamily=Verdana;fontSize=8;align=center;" vertex="1" parent="1">
          <mxGeometry x="40" y="670" width="740" height="610" as="geometry" />
        </mxCell>
        <mxCell id="knV6mDpK084_ws4ZRfsI-37" value="LOG" style="swimlane;html=1;startSize=20;" vertex="1" parent="knV6mDpK084_ws4ZRfsI-36">
          <mxGeometry y="20" width="180" height="590" as="geometry" />
        </mxCell>
        <mxCell id="knV6mDpK084_ws4ZRfsI-38" style="edgeStyle=orthogonalEdgeStyle;rounded=0;orthogonalLoop=1;jettySize=auto;html=1;exitX=0.5;exitY=1;exitDx=0;exitDy=0;entryX=0.5;entryY=0;entryDx=0;entryDy=0;" edge="1" parent="knV6mDpK084_ws4ZRfsI-37" source="knV6mDpK084_ws4ZRfsI-39" target="knV6mDpK084_ws4ZRfsI-40">
          <mxGeometry relative="1" as="geometry" />
        </mxCell>
        <mxCell id="knV6mDpK084_ws4ZRfsI-39" value="Start" style="ellipse;whiteSpace=wrap;html=1;aspect=fixed;" vertex="1" parent="knV6mDpK084_ws4ZRfsI-37">
          <mxGeometry x="55" y="50" width="50" height="50" as="geometry" />
        </mxCell>
        <mxCell id="knV6mDpK084_ws4ZRfsI-40" value="Hàng giao đến trễ" style="rounded=1;whiteSpace=wrap;html=1;" vertex="1" parent="knV6mDpK084_ws4ZRfsI-37">
          <mxGeometry x="23.75" y="140" width="112.5" height="50" as="geometry" />
        </mxCell>
        <mxCell id="knV6mDpK084_ws4ZRfsI-66" style="edgeStyle=orthogonalEdgeStyle;rounded=0;orthogonalLoop=1;jettySize=auto;html=1;" edge="1" parent="knV6mDpK084_ws4ZRfsI-37" source="knV6mDpK084_ws4ZRfsI-61" target="knV6mDpK084_ws4ZRfsI-65">
          <mxGeometry relative="1" as="geometry" />
        </mxCell>
        <mxCell id="knV6mDpK084_ws4ZRfsI-61" value="Nhận mail thông báo hàng đén trễ" style="rounded=1;whiteSpace=wrap;html=1;" vertex="1" parent="knV6mDpK084_ws4ZRfsI-37">
          <mxGeometry x="23.75" y="230" width="106.25" height="60" as="geometry" />
        </mxCell>
        <mxCell id="knV6mDpK084_ws4ZRfsI-72" style="edgeStyle=orthogonalEdgeStyle;rounded=0;orthogonalLoop=1;jettySize=auto;html=1;entryX=0.5;entryY=0;entryDx=0;entryDy=0;" edge="1" parent="knV6mDpK084_ws4ZRfsI-37" source="knV6mDpK084_ws4ZRfsI-65" target="knV6mDpK084_ws4ZRfsI-71">
          <mxGeometry relative="1" as="geometry" />
        </mxCell>
        <mxCell id="knV6mDpK084_ws4ZRfsI-65" value="Thay đổi kế hoạch?" style="rhombus;whiteSpace=wrap;html=1;" vertex="1" parent="knV6mDpK084_ws4ZRfsI-37">
          <mxGeometry x="31.88" y="330" width="90" height="80" as="geometry" />
        </mxCell>
        <mxCell id="knV6mDpK084_ws4ZRfsI-71" value="Giữ nguyên kế hoạch" style="rounded=1;whiteSpace=wrap;html=1;" vertex="1" parent="knV6mDpK084_ws4ZRfsI-37">
          <mxGeometry x="23.75" y="460" width="106.25" height="60" as="geometry" />
        </mxCell>
        <mxCell id="knV6mDpK084_ws4ZRfsI-41" value="FIFO" style="swimlane;html=1;startSize=20;" vertex="1" parent="knV6mDpK084_ws4ZRfsI-36">
          <mxGeometry x="180" y="20" width="225" height="590" as="geometry" />
        </mxCell>
        <mxCell id="knV6mDpK084_ws4ZRfsI-46" value="System" style="swimlane;html=1;startSize=20;" vertex="1" parent="knV6mDpK084_ws4ZRfsI-36">
          <mxGeometry x="405" y="20" width="175" height="590" as="geometry" />
        </mxCell>
        <mxCell id="knV6mDpK084_ws4ZRfsI-49" value="Hệ thống ghi nhận hàng đến muộn và hiện cảnh báo" style="rounded=1;whiteSpace=wrap;html=1;" vertex="1" parent="knV6mDpK084_ws4ZRfsI-46">
          <mxGeometry x="31.25" y="140" width="112.5" height="50" as="geometry" />
        </mxCell>
        <mxCell id="knV6mDpK084_ws4ZRfsI-64" value="Thay đổi kế hoạch nhận hàng" style="rounded=1;whiteSpace=wrap;html=1;" vertex="1" parent="knV6mDpK084_ws4ZRfsI-46">
          <mxGeometry x="31.25" y="340" width="106.25" height="60" as="geometry" />
        </mxCell>
        <mxCell id="knV6mDpK084_ws4ZRfsI-56" value="Database" style="swimlane;html=1;startSize=20;shadow=1;" vertex="1" parent="knV6mDpK084_ws4ZRfsI-36">
          <mxGeometry x="580" y="20" width="160" height="590" as="geometry" />
        </mxCell>
        <mxCell id="knV6mDpK084_ws4ZRfsI-57" value="DB" style="shape=cylinder3;whiteSpace=wrap;html=1;boundedLbl=1;backgroundOutline=1;size=15;" vertex="1" parent="knV6mDpK084_ws4ZRfsI-56">
          <mxGeometry x="70" y="255" width="60" height="80" as="geometry" />
        </mxCell>
        <mxCell id="knV6mDpK084_ws4ZRfsI-68" style="edgeStyle=orthogonalEdgeStyle;rounded=0;orthogonalLoop=1;jettySize=auto;html=1;exitX=1;exitY=0;exitDx=0;exitDy=52.5;exitPerimeter=0;entryX=1;entryY=0.5;entryDx=0;entryDy=0;entryPerimeter=0;" edge="1" parent="knV6mDpK084_ws4ZRfsI-56" source="knV6mDpK084_ws4ZRfsI-57" target="knV6mDpK084_ws4ZRfsI-57">
          <mxGeometry relative="1" as="geometry" />
        </mxCell>
        <mxCell id="knV6mDpK084_ws4ZRfsI-60" style="edgeStyle=orthogonalEdgeStyle;rounded=0;orthogonalLoop=1;jettySize=auto;html=1;" edge="1" parent="knV6mDpK084_ws4ZRfsI-36" source="knV6mDpK084_ws4ZRfsI-40" target="knV6mDpK084_ws4ZRfsI-49">
          <mxGeometry relative="1" as="geometry" />
        </mxCell>
        <mxCell id="knV6mDpK084_ws4ZRfsI-62" style="edgeStyle=orthogonalEdgeStyle;rounded=0;orthogonalLoop=1;jettySize=auto;html=1;entryX=1;entryY=0.5;entryDx=0;entryDy=0;" edge="1" parent="knV6mDpK084_ws4ZRfsI-36" source="knV6mDpK084_ws4ZRfsI-49" target="knV6mDpK084_ws4ZRfsI-61">
          <mxGeometry relative="1" as="geometry">
            <Array as="points">
              <mxPoint x="493" y="280" />
            </Array>
          </mxGeometry>
        </mxCell>
        <mxCell id="knV6mDpK084_ws4ZRfsI-63" value="Gửi mail để thông báo" style="edgeLabel;html=1;align=center;verticalAlign=middle;resizable=0;points=[];" vertex="1" connectable="0" parent="knV6mDpK084_ws4ZRfsI-62">
          <mxGeometry x="0.1031" relative="1" as="geometry">
            <mxPoint as="offset" />
          </mxGeometry>
        </mxCell>
        <mxCell id="knV6mDpK084_ws4ZRfsI-67" style="edgeStyle=orthogonalEdgeStyle;rounded=0;orthogonalLoop=1;jettySize=auto;html=1;entryX=0;entryY=0.5;entryDx=0;entryDy=0;" edge="1" parent="knV6mDpK084_ws4ZRfsI-36" source="knV6mDpK084_ws4ZRfsI-65" target="knV6mDpK084_ws4ZRfsI-64">
          <mxGeometry relative="1" as="geometry" />
        </mxCell>
        <mxCell id="knV6mDpK084_ws4ZRfsI-69" style="edgeStyle=orthogonalEdgeStyle;rounded=0;orthogonalLoop=1;jettySize=auto;html=1;" edge="1" parent="knV6mDpK084_ws4ZRfsI-36" source="knV6mDpK084_ws4ZRfsI-64" target="knV6mDpK084_ws4ZRfsI-57">
          <mxGeometry relative="1" as="geometry" />
        </mxCell>
        <mxCell id="knV6mDpK084_ws4ZRfsI-70" value="Lưu lại thời gian cũ&amp;nbsp;&lt;div&gt;và thời gian mới&lt;/div&gt;" style="edgeLabel;html=1;align=center;verticalAlign=middle;resizable=0;points=[];" vertex="1" connectable="0" parent="knV6mDpK084_ws4ZRfsI-69">
          <mxGeometry x="-0.2754" y="-3" relative="1" as="geometry">
            <mxPoint x="16" y="-3" as="offset" />
          </mxGeometry>
        </mxCell>
      </root>
    </mxGraphModel>
  </diagram>
</mxfile>
